<?xml version="1.0" encoding="UTF-8"?>
<svg version="1.1" viewBox="0 0 1807 2048" width="143" height="162" xmlns="http://www.w3.org/2000/svg">
<path transform="translate(874,345)" d="m0 0h37l38 2 27 3 28 5 31 7 19 6 23 8 27 12 24 13 21 14 13 10 10 9 8 7 12 11 7 8 12 15 14 21 12 21 12 25 12 32 8 30 6 31 4 29 2 32v289l-1 6h-633l-3 3 1 7 8 5 38 13 30 11 36 13 105 38 63 23 39 14 99 36 48 17 30 11 61 22 43 15 29 11 6 4 3 4-1 83-2 4-12 6-67 24-31 11-80 29-125 45-63 23-141 51-27 10-37 14-20 7-26 10-6 4-1 4 1 3 2 1 88 1 545 1 2 1v58l-1 26-1 1-779 1-1-2 1-136 9-4 89-32 51-18 100-36 193-69 134-48 42-15 27-10 14-5 4-5-5-6-16-6-46-16-30-11-48-17-36-13-77-28-29-10-109-39-145-52-89-32-32-11-1-1-1-17v-170l1-137 2-34 4-31 6-35 6-24 10-29 14-32 13-24 11-17 14-18 10-11 7-8 10-10 11-9 13-11 16-11 25-15 27-13 27-10 32-9 34-7 30-4 26-2z" fill="#020202"/>
<path transform="translate(866,445)" d="m0 0h50l48 3 35 5 34 8 23 8 21 9 24 14 14 10 11 9 12 11 9 10 12 17 12 21 9 19 11 33 6 27 4 30 2 26 1 27 1 153-4 2-11 1h-604l-6-2-1-8v-138l1-32 2-26 5-36 4-18 7-24 7-19 8-17 10-17 12-16 11-12 6-7 8-7 12-10 15-10 18-10 17-8 25-9 32-8 30-5 19-2z " fill="#fff"/>
</svg>
